<svg xmlns="http://www.w3.org/2000/svg" xmlns:xlink="http://www.w3.org/1999/xlink" viewBox="0,0,256,256" width="100px" height="100px" fill-rule="nonzero"><g fill="#00c5a0" fill-rule="nonzero" stroke="none" stroke-width="1" stroke-linecap="butt" stroke-linejoin="miter" stroke-miterlimit="10" stroke-dasharray="" stroke-dashoffset="0" font-family="none" font-weight="none" font-size="none" text-anchor="none" style="mix-blend-mode: normal"><g transform="scale(2.56,2.56)"><path d="M25.125,17c-4.488,0 -8.125,3.637 -8.125,8.125v49.75c0,4.487 3.637,8.125 8.125,8.125h49.75c4.487,0 8.125,-3.63895 8.125,-8.12695v-49.74805c0,-4.488 -3.63895,-8.125 -8.12695,-8.125zM25.125,19.09961h49.74805c3.322,0 6.02539,2.70434 6.02539,6.02734v49.75c0,3.322 -2.70339,6.02344 -6.02539,6.02344h-49.74805c-3.323,0 -6.02539,-2.70144 -6.02539,-6.02344v-49.75c0,-3.323 2.70239,-6.02734 6.02539,-6.02734zM26.53711,22c-2.50025,0 -4.53711,2.03685 -4.53711,4.53711v2.96289c-0.00255,0.18032 0.09219,0.34804 0.24794,0.43894c0.15575,0.0909 0.34838,0.0909 0.50413,0c0.15575,-0.0909 0.25049,-0.25863 0.24794,-0.43894v-2.96289c0,-1.95975 1.57736,-3.53711 3.53711,-3.53711h4.96289c0.18032,0.00255 0.34804,-0.09219 0.43894,-0.24794c0.0909,-0.15575 0.0909,-0.34838 0,-0.50413c-0.0909,-0.15575 -0.25863,-0.25049 -0.43894,-0.24794zM36.5,22c-0.18032,-0.00255 -0.34804,0.09219 -0.43894,0.24794c-0.0909,0.15575 -0.0909,0.34838 0,0.50413c0.0909,0.15575 0.25863,0.25049 0.43894,0.24794h10c0.18032,0.00255 0.34804,-0.09219 0.43894,-0.24794c0.0909,-0.15575 0.0909,-0.34838 0,-0.50413c-0.0909,-0.15575 -0.25863,-0.25049 -0.43894,-0.24794zM49.5,22c-0.18032,-0.00255 -0.34804,0.09219 -0.43894,0.24794c-0.0909,0.15575 -0.0909,0.34838 0,0.50413c0.0909,0.15575 0.25863,0.25049 0.43894,0.24794h3c0.18032,0.00255 0.34804,-0.09219 0.43894,-0.24794c0.0909,-0.15575 0.0909,-0.34838 0,-0.50413c-0.0909,-0.15575 -0.25863,-0.25049 -0.43894,-0.24794zM69,22c-0.18032,-0.00255 -0.34804,0.09219 -0.43894,0.24794c-0.0909,0.15575 -0.0909,0.34838 0,0.50413c0.0909,0.15575 0.25863,0.25049 0.43894,0.24794h4.46289c1.95975,0 3.53711,1.57736 3.53711,3.53711v20.92773c-0.00041,0.01172 -0.00041,0.02344 0,0.03516v0.5v25.46289c0,1.95975 -1.57736,3.53711 -3.53711,3.53711h-12.46289c-0.18032,-0.00255 -0.34804,0.09219 -0.43894,0.24794c-0.0909,0.15575 -0.0909,0.34838 0,0.50413c0.0909,0.15575 0.25863,0.25049 0.43894,0.24794h12.46289c2.50025,0 4.53711,-2.03686 4.53711,-4.53711v-25.42773c0.00041,-0.01172 0.00041,-0.02344 0,-0.03516v-0.5v-20.96289c0,-2.50025 -2.03686,-4.53711 -4.53711,-4.53711zM50,27.5c-12.42049,0 -22.5,10.07952 -22.5,22.5c0,12.42048 10.07951,22.5 22.5,22.5c12.42049,0 22.5,-10.07952 22.5,-22.5c0,-12.42048 -10.07951,-22.5 -22.5,-22.5zM50,28.5c11.88005,0 21.5,9.61995 21.5,21.5c0,11.88005 -9.61995,21.5 -21.5,21.5c-11.88005,0 -21.5,-9.61995 -21.5,-21.5c0,-11.88005 9.61995,-21.5 21.5,-21.5zM46.2168,39.0293c-5.4295,0.13956 -9.39446,1.1925 -9.74219,1.28711h-0.00195c-1.41973,0.38709 -2.26465,1.86462 -1.87891,3.28516c0.38578,1.42066 1.86348,2.26649 3.28516,1.88477h0.00195v-0.00195c-0.0275,0.0076 0.23924,-0.06287 0.6543,-0.1543c0.41506,-0.09143 1.01445,-0.2123 1.76367,-0.33789c1.49844,-0.25119 3.59431,-0.51724 6.01172,-0.58203c4.83482,-0.12958 10.93997,0.54999 16.11719,3.69922h0.00195c0.43214,0.26198 0.91372,0.38867 1.38867,0.38867c0.90448,0 1.78802,-0.46029 2.29102,-1.28516c0.76669,-1.25904 0.36257,-2.91616 -0.89648,-3.68164c-0.9851,-0.599 -1.98934,-1.12406 -3.00586,-1.58398c-0.25187,-0.11434 -0.54875,-0.00285 -0.66309,0.24902c-0.11434,0.25187 -0.00285,0.54875 0.24902,0.66309c0.98148,0.44407 1.95149,0.95035 2.90039,1.52734c0.79694,0.48452 1.04781,1.50968 0.5625,2.30664c-0.319,0.52313 -0.86998,0.80469 -1.4375,0.80469c-0.29705,0 -0.59724,-0.07812 -0.87109,-0.24414c-5.41978,-3.29677 -11.71218,-3.97642 -16.66211,-3.84375c-2.47496,0.06633 -4.61719,0.33836 -6.15234,0.5957c-0.76758,0.12867 -1.38437,0.25292 -1.81445,0.34766c-0.43008,0.09473 -0.63817,0.15067 -0.70117,0.16797l0.00195,-0.00195c-0.90233,0.24228 -1.81633,-0.28035 -2.06055,-1.17969c-0.24425,-0.89946 0.27947,-1.81368 1.17773,-2.05859c0.39637,-0.10785 7.19557,-1.90504 15.20898,-1.02344c0.1776,0.01956 0.35213,-0.05712 0.45786,-0.20115c0.10573,-0.14403 0.12657,-0.33353 0.05469,-0.4971c-0.07188,-0.16357 -0.22557,-0.27636 -0.40317,-0.29589c-2.05524,-0.22601 -4.02806,-0.2809 -5.83789,-0.23437zM54.99609,39.70898c-0.25956,-0.00169 -0.47726,0.19551 -0.50118,0.45397c-0.02391,0.25847 0.15391,0.49226 0.40938,0.53822c1.63171,0.3155 3.2866,0.75663 4.92383,1.35547c0.16782,0.06143 0.35567,0.02865 0.49277,-0.08598c0.1371,-0.11463 0.20263,-0.29371 0.17189,-0.46976c-0.03074,-0.17605 -0.15307,-0.32232 -0.32091,-0.38371c-1.69277,-0.61916 -3.39788,-1.07198 -5.07617,-1.39648c-0.03273,-0.00723 -0.0661,-0.01116 -0.09961,-0.01172zM46.34375,47.49609c-4.77607,0.09852 -8.28621,1.00159 -8.59375,1.08203c-1.24611,0.3272 -2.01131,1.5973 -1.66406,2.82227c0.34745,1.22441 1.65272,1.93275 2.90039,1.60547c-0.02758,0.0072 0.78825,-0.20111 2.07422,-0.41016c1.28597,-0.20904 3.08674,-0.42961 5.16406,-0.48437c4.15465,-0.10953 9.40486,0.45151 13.86914,3.05859v0.00195c0.38217,0.22247 0.80511,0.32813 1.2207,0.32813c0.79318,0 1.57191,-0.38725 2.01953,-1.09375c0.68205,-1.07853 0.31476,-2.51343 -0.79492,-3.16211c-5.37587,-3.1395 -11.41925,-3.84657 -16.19531,-3.74805zM46.34766,48.52148c4.65693,-0.09473 10.53742,0.57944 15.68555,3.58594c0.65232,0.38132 0.84498,1.1502 0.45703,1.76367c-0.25437,0.4015 -0.70696,0.62891 -1.17578,0.62891c-0.24641,0 -0.49097,-0.06188 -0.7168,-0.19336c-4.70372,-2.74692 -10.13454,-3.30778 -14.40039,-3.19531c-2.13293,0.05623 -3.97724,0.28321 -5.29883,0.49805c-1.32159,0.21483 -2.07744,0.40645 -2.16602,0.42969c-0.74233,0.19472 -1.48904,-0.22652 -1.68359,-0.91211c-0.19476,-0.68703 0.21319,-1.38723 0.95508,-1.58203c0.25446,-0.06656 3.68682,-0.92871 8.34375,-1.02344zM22.49219,48.99219c-0.13261,0.00207 -0.25896,0.05673 -0.35127,0.15197c-0.0923,0.09523 -0.14299,0.22324 -0.14092,0.35584v23.96289c0,2.50025 2.03685,4.53711 4.53711,4.53711h2.96289c0.18032,0.00255 0.34804,-0.09219 0.43894,-0.24794c0.0909,-0.15575 0.0909,-0.34838 0,-0.50413c-0.0909,-0.15575 -0.25863,-0.25049 -0.43894,-0.24794h-2.96289c-1.95975,0 -3.53711,-1.57736 -3.53711,-3.53711v-23.96289c0.00212,-0.13532 -0.0507,-0.26572 -0.1464,-0.36141c-0.0957,-0.0957 -0.22609,-0.14852 -0.36141,-0.1464zM46.14648,55.08594c-3.98734,0.0859 -6.91456,0.87285 -7.17383,0.94336h-0.00195c-1.05812,0.28809 -1.68839,1.39146 -1.40039,2.44922c0.28813,1.05822 1.39393,1.68887 2.45117,1.40234l0.00195,-0.00195h0.00391c-0.03533,0.01009 0.04633,-0.01214 0.14063,-0.03516c0.09429,-0.02302 0.23312,-0.05524 0.41016,-0.09375c0.35408,-0.07702 0.86516,-0.17947 1.5,-0.2793c0.27291,-0.04315 0.45916,-0.29936 0.41602,-0.57227c-0.04315,-0.27291 -0.29936,-0.45916 -0.57227,-0.41602c-0.65616,0.10318 -1.18547,0.20833 -1.55664,0.28906c-0.18559,0.04037 -0.33136,0.07466 -0.43359,0.09961c-0.0978,0.02387 -0.12635,0.03202 -0.17187,0.04492c-0.53675,0.14547 -1.07873,-0.16344 -1.22461,-0.69922c-0.146,-0.53624 0.16334,-1.07675 0.69922,-1.22266c0.41546,-0.11298 11.3928,-2.97818 19.91797,2.20703c0.47571,0.28974 0.6233,0.89413 0.33398,1.36914c-0.19003,0.312 -0.51355,0.47852 -0.85156,0.47852c-0.17695,0 -0.35445,-0.04596 -0.51562,-0.14453v-0.00195h-0.00195c-1.5997,-0.97254 -3.29928,-1.63217 -4.99219,-2.06641c-0.26751,-0.06904 -0.54034,0.09186 -0.60937,0.35938c-0.06904,0.26751 0.09186,0.54034 0.35938,0.60938c1.61309,0.41376 3.22041,1.03977 4.72266,1.95312v-0.00195c0.32283,0.19743 0.68406,0.29297 1.03711,0.29297c0.67398,0 1.33306,-0.34498 1.70703,-0.95898c0.57069,-0.93699 0.26832,-2.17193 -0.66797,-2.74219h-0.00195c-4.49237,-2.73235 -9.53805,-3.34762 -13.52539,-3.26172zM47.39453,58.09766c-0.85423,-0.01554 -1.66843,0.00651 -2.42578,0.05273c-0.18011,0.00875 -0.34155,0.11379 -0.42253,0.2749c-0.08098,0.16111 -0.06894,0.35335 0.03151,0.5031c0.10044,0.14975 0.27373,0.23383 0.45352,0.22004c1.4673,-0.08955 3.15128,-0.08663 4.91016,0.11914c0.27452,0.03236 0.5233,-0.16395 0.55566,-0.43848c0.03236,-0.27452 -0.16395,-0.5233 -0.43848,-0.55566c-0.91556,-0.10711 -1.80983,-0.16024 -2.66406,-0.17578zM33.5,77c-0.18032,-0.00255 -0.34804,0.09219 -0.43894,0.24794c-0.0909,0.15575 -0.0909,0.34838 0,0.50413c0.0909,0.15575 0.25863,0.25049 0.43894,0.24794h5c0.18032,0.00255 0.34804,-0.09219 0.43894,-0.24794c0.0909,-0.15575 0.0909,-0.34838 0,-0.50413c-0.0909,-0.15575 -0.25863,-0.25049 -0.43894,-0.24794zM43.5,77c-0.18032,-0.00255 -0.34804,0.09219 -0.43894,0.24794c-0.0909,0.15575 -0.0909,0.34838 0,0.50413c0.0909,0.15575 0.25863,0.25049 0.43894,0.24794h14c0.18032,0.00255 0.34804,-0.09219 0.43894,-0.24794c0.0909,-0.15575 0.0909,-0.34838 0,-0.50413c-0.0909,-0.15575 -0.25863,-0.25049 -0.43894,-0.24794z"></path></g></g></svg>