<svg xmlns="http://www.w3.org/2000/svg" xmlns:xlink="http://www.w3.org/1999/xlink" viewBox="0,0,256,256" width="100px" height="100px" fill-rule="nonzero"><g fill="#d3fbd8" fill-rule="nonzero" stroke="none" stroke-width="1" stroke-linecap="butt" stroke-linejoin="miter" stroke-miterlimit="10" stroke-dasharray="" stroke-dashoffset="0" font-family="none" font-weight="none" font-size="none" text-anchor="none" style="mix-blend-mode: normal"><g transform="scale(2.56,2.56)"><path d="M30.57422,18c-7.168,0 -13,5.832 -13,13v39c0,7.168 5.832,13 13,13h39c7.168,0 13,-5.832 13,-13v-39c0,-7.168 -5.832,-13 -13,-13zM30.57422,20h39c6.065,0 11,4.935 11,11v39c0,6.065 -4.935,11 -11,11h-39c-6.065,0 -11,-4.935 -11,-11v-39c0,-6.065 4.935,-11 11,-11zM33.41211,23c-5.976,0 -10.83789,4.86189 -10.83789,10.83789v33.32422c0,5.976 4.86189,10.83789 10.83789,10.83789h33.32617c5.975,0 10.83594,-4.86189 10.83594,-10.83789v-18.66211c0,-0.276 -0.224,-0.5 -0.5,-0.5c-0.276,0 -0.5,0.224 -0.5,0.5v18.66211c0,5.424 -4.41194,9.83789 -9.83594,9.83789h-33.32617c-5.424,0 -9.83789,-4.41389 -9.83789,-9.83789v-33.32422c0,-5.424 4.41389,-9.83789 9.83789,-9.83789h33.66211c0.276,0 0.5,-0.224 0.5,-0.5c0,-0.276 -0.224,-0.5 -0.5,-0.5zM38.66992,36.08008c-0.38925,0 -0.77855,0.14133 -1.06055,0.42383c-0.585,0.585 -0.585,1.53414 0,2.11914l10.95898,10.96094l-10.95898,10.96094c-0.585,0.585 -0.585,1.53514 0,2.11914c0.283,0.282 0.65955,0.43945 1.06055,0.43945c0.401,0 0.77855,-0.15745 1.06055,-0.43945l10.95898,-10.95898l10.25391,10.25195c0.586,0.585 1.53509,0.583 2.12109,0c0.283,-0.283 0.43945,-0.65855 0.43945,-1.06055c0,-0.402 -0.15745,-0.77855 -0.43945,-1.06055l-10.25391,-10.25391l10.25391,-10.25c0.283,-0.283 0.43945,-0.65955 0.43945,-1.06055c0,-0.401 -0.15745,-0.77755 -0.43945,-1.06055c-0.588,-0.585 -1.53709,-0.583 -2.12109,0l-10.25391,10.25195l-10.95898,-10.95898c-0.282,-0.2825 -0.6713,-0.42383 -1.06055,-0.42383zM77.07422,37c-0.276,0 -0.5,0.224 -0.5,0.5v2c0,0.276 0.224,0.5 0.5,0.5c0.276,0 0.5,-0.224 0.5,-0.5v-2c0,-0.276 -0.224,-0.5 -0.5,-0.5zM38.66992,37.0625c0.134,0 0.25952,0.05248 0.35352,0.14648l11.31445,11.3125c0.195,0.195 0.51203,0.195 0.70703,0l10.60547,-10.60742c0.194,-0.194 0.51103,-0.195 0.70703,0c0.195,0.195 0.195,0.51203 0,0.70703l-10.60547,10.60742c-0.093,0.094 -0.14648,0.22051 -0.14648,0.35352c0,0.133 0.05248,0.26147 0.14648,0.35547l10.60547,10.60547c0.195,0.195 0.195,0.51303 0,0.70703c-0.194,0.194 -0.51103,0.195 -0.70703,0l-10.60742,-10.60547c-0.195,-0.195 -0.51203,-0.195 -0.70703,0l-11.3125,11.3125c-0.187,0.188 -0.51903,0.188 -0.70703,0c-0.194,-0.195 -0.194,-0.51203 0,-0.70703l11.3125,-11.3125c0.195,-0.195 0.195,-0.51203 0,-0.70703l-11.3125,-11.31445c-0.195,-0.195 -0.195,-0.51203 0,-0.70703c0.094,-0.094 0.21852,-0.14648 0.35352,-0.14648zM77.07422,41c-0.276,0 -0.5,0.224 -0.5,0.5v4c0,0.276 0.224,0.5 0.5,0.5c0.276,0 0.5,-0.224 0.5,-0.5v-4c0,-0.276 -0.224,-0.5 -0.5,-0.5z"></path></g></g></svg>